<?xml version="1.0" encoding="UTF-8" standalone="no"?>
<!DOCTYPE svg PUBLIC "-//W3C//DTD SVG 1.1//EN" "http://www.w3.org/Graphics/SVG/1.1/DTD/svg11.dtd">
<svg width="100%" height="100%" viewBox="0 0 16 16" version="1.1" xmlns="http://www.w3.org/2000/svg" xmlns:xlink="http://www.w3.org/1999/xlink" xml:space="preserve" style="fill-rule:evenodd;clip-rule:evenodd;stroke-linejoin:round;stroke-miterlimit:1.41421;">
    <g transform="matrix(0.0278188,0,0,0.0278188,-0.0243045,0.877113)">
        <path d="M228.5,511.8L203.5,504.7C200.3,503.8 198.5,500.5 199.4,497.3L340.1,4.4C341,1.2 344.3,-0.6 347.5,0.3L372.5,7.4C375.7,8.3 377.5,11.6 376.6,14.8L235.9,507.6C235,510.8 231.6,512.7 228.5,511.8ZM152.9,386.5L171.4,365.6C173.3,363.5 173,360.3 170.9,358.5L49.9,256L170.9,153.5C173,151.7 173.3,148.5 171.4,146.4L152.9,125.5C151.1,123.4 147.9,123.2 145.8,125.1L1.7,252.3C-0.6,254.3 -0.6,257.8 1.7,259.8L145.8,387C147.9,388.8 151.1,388.6 152.9,386.5ZM430.2,386.9L574.3,259.7C576.6,257.7 576.6,254.2 574.3,252.2L430.2,125.1C428.1,123.3 425,123.5 423.1,125.5L404.6,146.4C402.7,148.5 403,151.7 405.1,153.5L526.1,256L405.1,358.5C403,360.3 402.7,363.5 404.6,365.6L423.1,386.5C424.9,388.6 428.1,388.8 430.2,386.9L430.2,386.9Z" style="fill:rgb(208,210,211);fill-rule:nonzero;"/>
    </g>
</svg>
