<?xml version="1.0" encoding="UTF-8" standalone="no"?>
<!DOCTYPE svg PUBLIC "-//W3C//DTD SVG 1.1//EN" "http://www.w3.org/Graphics/SVG/1.1/DTD/svg11.dtd">
<svg width="100%" height="100%" viewBox="0 0 16 16" version="1.1" xmlns="http://www.w3.org/2000/svg" xmlns:xlink="http://www.w3.org/1999/xlink" xml:space="preserve" style="fill-rule:evenodd;clip-rule:evenodd;stroke-linejoin:round;stroke-miterlimit:1.41421;">
    <g transform="matrix(0.0277783,0,0,0.0277783,-0.000135376,0.888769)">
        <path d="M569.517,440.013C587.975,472.007 564.806,512 527.94,512L48.054,512C11.117,512 -11.945,471.946 6.477,440.013L246.423,23.985C264.89,-8.024 311.143,-7.967 329.577,23.985L569.517,440.013ZM541.859,456.004L301.859,40.004C295.699,29.326 280.276,29.37 274.141,40.004L34.141,456.004C27.983,466.678 35.731,480 48,480L528,480C540.323,480 547.99,466.631 541.859,456.004L541.859,456.004ZM288,372C272.536,372 260,384.536 260,400C260,415.464 272.536,428 288,428C303.464,428 316,415.464 316,400C316,384.536 303.464,372 288,372ZM276.51,160L299.489,160C306.312,160 311.763,165.682 311.479,172.5L304.479,340.5C304.211,346.928 298.923,352 292.489,352L283.51,352C277.077,352 271.788,346.927 271.52,340.5L264.52,172.5C264.237,165.682 269.687,160 276.51,160ZM288,372C272.536,372 260,384.536 260,400C260,415.464 272.536,428 288,428C303.464,428 316,415.464 316,400C316,384.536 303.464,372 288,372Z" style="fill:rgb(183,18,24);fill-rule:nonzero;"/>
    </g>
</svg>
